<?xml version="1.0" standalone="no"?>
<!DOCTYPE svg PUBLIC "-//W3C//DTD SVG 20010904//EN"
 "http://www.w3.org/TR/2001/REC-SVG-20010904/DTD/svg10.dtd">
<svg version="1.0" xmlns="http://www.w3.org/2000/svg"
 width="2000.000000pt" height="2000.000000pt" viewBox="0 0 2000.000000 2000.000000"
 preserveAspectRatio="xMidYMid meet">

<g transform="translate(0.000000,2000.000000) scale(0.100000,-0.100000)"
fill="#000000" stroke="none">
<path d="M12390 15444 c-542 -97 -907 -194 -1209 -320 -436 -183 -918 -519
-1111 -776 -70 -92 -96 -146 -118 -238 l-15 -67 -40 39 c-29 28 -48 38 -72 38
-62 0 -65 -11 -65 -256 1 -343 29 -681 63 -734 7 -13 39 -28 80 -41 137 -41
181 -113 197 -327 19 -238 18 -236 142 -340 123 -102 273 -275 321 -369 9 -17
26 -35 38 -38 29 -10 71 23 81 62 5 20 58 85 141 174 191 206 323 353 399 444
36 44 91 104 121 133 l54 53 -35 -70 c-59 -118 -56 -228 7 -285 20 -18 45 -19
548 -20 291 -1 533 -4 540 -9 8 -5 1 -24 -24 -65 -47 -77 -43 -120 20 -222 26
-41 85 -165 131 -275 100 -242 110 -261 138 -276 26 -14 94 -7 163 16 280 94
632 272 694 351 30 38 26 62 -18 140 -21 38 -57 103 -80 144 -23 41 -69 113
-102 159 -51 71 -58 86 -47 100 7 9 34 41 60 71 26 31 88 114 137 185 50 72
116 167 148 213 61 88 65 105 53 207 l-5 40 75 49 c41 27 107 72 145 99 76 54
253 153 487 272 180 91 238 141 238 201 0 78 -73 115 -355 177 -496 111 -919
114 -1425 12 -120 -24 -163 -36 -470 -129 -102 -31 -215 -60 -252 -63 l-67 -6
24 94 c33 127 33 182 -1 216 l-26 26 -147 -7 c-250 -12 -265 8 -156 221 130
255 271 417 595 686 113 94 224 189 248 211 47 45 53 75 22 106 -27 27 -95 25
-270 -6z"/>
<path d="M7587 15342 c-37 -41 -25 -71 170 -411 201 -353 227 -403 247 -492
l14 -58 -36 15 c-210 90 -597 239 -762 294 -269 90 -375 110 -610 117 -346 10
-624 -50 -900 -194 -139 -73 -310 -192 -392 -274 -69 -68 -78 -80 -78 -113 0
-50 36 -86 85 -86 19 0 79 6 133 14 147 22 454 39 572 32 149 -10 355 -41 495
-75 188 -46 427 -134 409 -150 -5 -4 -76 -20 -159 -36 -295 -54 -704 -168
-970 -271 -311 -120 -384 -146 -517 -188 -160 -51 -287 -82 -493 -121 -77 -15
-152 -33 -167 -41 -57 -29 -41 -106 24 -119 121 -24 276 -94 433 -196 170
-111 206 -133 355 -217 80 -45 151 -86 158 -90 10 -7 -11 -51 -84 -178 -103
-180 -119 -206 -261 -410 -152 -219 -175 -271 -135 -307 41 -37 79 -26 414
126 237 108 432 163 617 174 73 5 98 10 113 25 29 29 23 63 -18 100 -86 78
-274 307 -274 334 0 14 112 120 175 166 65 46 278 179 331 206 23 12 115 41
205 66 362 100 812 153 1193 142 120 -4 287 -13 370 -21 357 -36 494 -81 700
-234 252 -188 334 -223 387 -170 19 19 20 28 14 111 l-7 91 38 -8 c52 -9 101
-35 156 -84 51 -46 78 -51 108 -21 18 18 20 33 20 173 0 337 -32 565 -102 731
-75 175 -232 293 -344 256 -65 -22 -67 -49 -19 -207 19 -64 34 -117 33 -119
-4 -3 -66 119 -202 396 -125 257 -170 328 -344 554 -145 188 -276 320 -412
415 -58 40 -168 117 -245 172 -236 168 -392 232 -438 181z"/>
<path d="M9789 12989 c-20 -20 -21 -29 -16 -108 3 -47 15 -153 26 -236 28
-207 37 -404 21 -479 l-12 -59 -77 149 c-146 286 -245 386 -324 324 -34 -27
-34 -47 4 -145 28 -71 65 -232 56 -242 -2 -2 -26 24 -53 58 -58 73 -151 152
-329 279 -281 202 -366 247 -628 335 -288 96 -313 100 -572 99 -315 -3 -855
-44 -985 -76 -54 -13 -284 -97 -365 -133 -145 -63 -385 -262 -385 -317 0 -37
22 -56 76 -64 41 -6 72 2 248 59 110 37 228 73 261 81 241 59 626 62 850 5
210 -54 602 -240 722 -343 105 -91 109 -282 11 -498 -32 -70 -44 -81 -55 -50
-17 44 -153 249 -267 402 -142 190 -254 282 -413 340 -351 127 -796 44 -942
-176 -91 -138 -166 -559 -132 -735 22 -110 69 -188 261 -434 69 -88 160 -209
204 -268 107 -148 193 -231 294 -282 l81 -41 -33 -79 c-18 -44 -52 -119 -74
-166 -71 -149 -89 -272 -58 -400 23 -98 120 -257 279 -456 34 -43 103 -131
154 -196 51 -65 159 -188 241 -273 146 -151 149 -154 191 -154 50 0 74 21 154
132 26 37 62 77 80 90 l32 23 -22 -31 c-70 -98 -124 -269 -158 -499 -26 -175
-19 -248 46 -489 49 -179 83 -252 153 -321 103 -103 179 -112 312 -36 47 27
129 68 182 91 53 23 139 62 191 86 51 24 98 44 102 44 5 0 64 26 132 58 152
73 192 111 203 198 16 135 -27 406 -77 473 -27 37 -178 140 -286 196 -39 20
-73 40 -75 45 -5 13 -95 15 -110 2 -12 -9 -24 -6 -59 17 -73 46 -124 114 -149
199 -20 68 -22 90 -17 216 5 142 29 305 68 465 23 96 23 236 -1 251 -7 4 -18
42 -26 84 -24 139 -73 204 -168 221 -22 3 -85 29 -140 56 -56 28 -139 66 -186
85 -46 20 -96 44 -111 55 -15 10 -31 19 -37 19 -16 0 -62 41 -62 55 0 21 22
23 95 8 79 -17 179 -13 290 11 84 19 122 20 180 5 54 -14 120 -68 134 -112 20
-61 92 -442 87 -462 -3 -10 0 -49 6 -85 9 -54 8 -79 -6 -145 -10 -44 -26 -120
-37 -170 -26 -121 -49 -314 -49 -400 1 -116 36 -220 92 -273 l25 -23 68 40
c87 51 148 66 265 65 81 -1 112 -7 208 -38 145 -46 197 -47 295 -5 40 17 100
37 135 44 68 15 74 14 204 -34 32 -12 74 -21 95 -21 l38 0 -25 -20 c-34 -27
-100 -48 -190 -60 -41 -6 -77 -15 -78 -21 -2 -5 -23 -27 -45 -48 -203 -186
-212 -191 -241 -150 -30 44 -54 -16 -56 -146 -3 -102 25 -410 41 -463 19 -63
61 -107 121 -127 61 -19 231 -92 333 -142 205 -101 454 -187 596 -208 45 -7
47 -6 81 37 60 74 88 125 126 236 l37 107 -1 215 c-1 357 -28 519 -119 709
-40 82 -50 111 -37 106 65 -29 221 -76 267 -81 l56 -7 47 49 c26 27 90 112
142 188 60 88 139 186 215 266 165 175 221 276 264 472 42 198 56 542 25 634
-8 25 -14 47 -12 49 2 1 48 37 103 78 230 174 352 324 513 627 98 187 171 358
183 429 11 74 14 283 3 327 -23 95 -93 183 -207 258 -172 113 -282 154 -500
186 -256 38 -436 20 -609 -62 -229 -109 -398 -257 -545 -476 l-42 -63 -77 153
c-95 192 -164 296 -247 376 -70 66 -111 80 -147 47 -16 -14 -18 -9 -34 72 -69
355 -160 563 -245 563 -18 0 -40 -9 -52 -21z m1995 -953 c-127 -59 -329 -187
-431 -274 -99 -83 -139 -177 -96 -224 27 -30 167 -18 318 29 11 3 -16 -32 -62
-81 -142 -149 -236 -312 -264 -454 -11 -61 -12 -62 -31 -46 -41 38 -100 345
-102 529 -1 97 0 103 37 178 53 107 173 234 268 281 88 44 250 80 379 85 35 1
35 1 -16 -23z m-4316 -42 c107 -37 257 -151 317 -243 31 -45 65 -177 65 -246
0 -107 -57 -357 -108 -475 -22 -49 -21 -51 -48 55 -40 158 -176 368 -309 476
-36 29 -63 54 -61 57 10 9 119 -22 221 -63 60 -25 118 -45 128 -45 32 0 55 19
62 50 10 44 -60 182 -130 258 -85 92 -186 139 -355 167 l-75 12 65 11 c76 12
165 7 228 -14z m3132 -1460 c47 -18 123 -45 170 -59 120 -37 130 -42 130 -65
0 -29 -31 -45 -231 -121 -99 -38 -212 -85 -250 -105 -65 -34 -74 -43 -121
-121 -51 -83 -66 -95 -87 -69 -9 10 -7 36 9 107 24 109 54 219 82 304 10 33
21 69 23 80 11 53 41 78 105 88 40 6 79 -3 170 -39z"/>
<path d="M4795 12758 c-49 -61 -114 -140 -143 -177 -29 -36 -76 -92 -104 -124
-28 -32 -75 -90 -105 -129 -30 -39 -65 -80 -77 -92 -12 -11 -47 -53 -77 -92
-51 -68 -179 -223 -328 -399 -37 -44 -87 -106 -110 -137 -24 -32 -47 -58 -51
-58 -4 0 -34 -35 -66 -79 -33 -43 -80 -103 -106 -132 -26 -30 -73 -86 -105
-125 -90 -111 -207 -254 -257 -314 -25 -30 -67 -82 -94 -115 -26 -33 -67 -82
-93 -110 -25 -27 -69 -81 -98 -119 -56 -72 -86 -109 -111 -135 -46 -50 -180
-224 -180 -235 0 -7 24 -32 53 -55 46 -38 163 -147 451 -421 110 -105 242
-229 355 -336 226 -213 273 -257 361 -341 52 -49 138 -130 190 -179 52 -49
115 -109 141 -134 26 -25 109 -103 185 -175 76 -71 157 -148 179 -170 23 -22
97 -92 165 -155 68 -63 150 -141 181 -172 31 -32 61 -58 66 -58 4 0 62 57 128
126 66 69 159 166 208 216 48 50 87 94 87 98 0 4 -86 90 -192 191 -106 101
-222 213 -258 249 -36 36 -155 151 -265 255 -110 105 -227 217 -261 250 -33
33 -107 105 -165 160 -235 225 -529 508 -653 627 l-131 126 34 34 c19 18 52
58 74 88 22 30 54 71 71 91 71 82 92 108 155 188 36 47 84 105 107 130 22 26
62 75 89 111 27 36 62 79 78 95 17 17 48 55 70 85 36 50 63 83 131 160 12 14
53 65 91 114 39 49 90 112 115 140 25 28 69 84 98 124 30 39 58 72 62 72 5 0
30 30 56 66 26 37 75 99 108 138 34 39 74 87 89 106 86 109 122 154 144 178
14 15 56 68 94 117 37 50 77 96 88 103 12 7 21 20 21 28 0 13 -394 416 -403
413 -1 0 -42 -50 -92 -111z"/>
<path d="M13841 12832 c-19 -20 -106 -110 -193 -200 -145 -149 -173 -185 -150
-194 9 -3 107 -116 173 -198 20 -25 49 -58 63 -73 15 -16 44 -53 66 -82 22
-30 44 -56 50 -60 6 -3 35 -38 66 -76 30 -38 63 -77 73 -87 9 -9 46 -53 82
-96 35 -44 77 -93 92 -110 16 -17 50 -58 75 -91 26 -33 58 -71 72 -85 14 -14
39 -43 55 -65 16 -22 50 -63 75 -91 25 -28 95 -111 155 -184 61 -73 133 -158
160 -189 28 -31 67 -80 88 -108 21 -29 42 -53 46 -53 4 0 24 -24 46 -52 21
-29 60 -76 85 -104 61 -68 264 -313 268 -322 1 -5 -260 -268 -580 -585 -1106
-1094 -1308 -1295 -1308 -1300 0 -2 96 -103 214 -223 l214 -219 74 71 c40 40
121 118 179 175 116 115 341 333 793 774 164 160 351 342 416 405 557 546 822
800 832 800 20 0 2 31 -58 100 -35 41 -86 102 -112 135 -26 32 -59 71 -73 85
-15 14 -48 52 -75 85 -26 33 -57 69 -68 81 -12 11 -46 51 -76 89 -30 37 -62
75 -71 84 -21 21 -163 188 -212 249 -21 26 -60 72 -87 102 -26 30 -66 76 -87
102 -21 26 -83 99 -138 163 -55 63 -125 147 -155 185 -30 37 -66 79 -80 92
-14 13 -46 51 -73 83 -50 63 -109 135 -192 230 -27 32 -69 81 -93 109 -24 28
-66 77 -94 109 -28 32 -60 70 -71 85 -12 15 -41 50 -66 78 -44 49 -75 85 -267
312 -47 56 -89 102 -93 102 -3 0 -21 -17 -40 -38z"/>
<path d="M6021 11950 c-164 -63 -290 -127 -536 -275 -523 -313 -811 -525
-1110 -815 -60 -58 -160 -148 -222 -198 -142 -118 -149 -134 -87 -202 20 -21
43 -59 52 -83 15 -40 30 -53 147 -132 248 -167 400 -317 510 -504 65 -110 76
-118 148 -108 23 3 206 60 407 126 201 66 412 131 470 146 164 42 607 171 805
235 99 32 213 68 253 80 137 40 147 83 44 192 -110 117 -261 295 -343 405
-195 261 -297 581 -305 962 -3 145 -6 177 -20 192 -28 31 -95 24 -213 -21z"/>
<path d="M13390 11703 c-8 -3 -88 -41 -178 -85 -110 -54 -227 -101 -359 -144
-204 -68 -250 -92 -259 -134 -13 -55 -118 -250 -178 -330 -35 -47 -97 -116
-138 -155 -81 -77 -91 -86 -231 -199 -61 -50 -108 -96 -125 -125 -26 -45 -26
-47 -33 -311 -4 -146 -12 -292 -19 -325 -35 -183 -93 -322 -205 -490 -37 -55
-69 -114 -72 -131 -7 -43 37 -80 109 -89 172 -22 455 -103 583 -167 154 -78
357 -227 487 -360 57 -57 73 -68 101 -68 45 0 63 15 176 148 98 116 245 279
305 338 92 90 335 299 516 444 113 90 259 210 325 265 181 153 325 259 509
373 225 140 226 149 58 307 -175 164 -251 243 -377 390 -156 182 -376 407
-545 558 -74 67 -155 143 -180 171 -25 27 -67 67 -93 88 -44 34 -54 38 -105
37 -32 0 -64 -3 -72 -6z"/>
<path d="M6800 9883 c-390 -185 -714 -314 -1210 -482 -212 -71 -401 -135 -420
-141 -49 -18 -80 -49 -80 -81 0 -20 16 -42 67 -90 168 -158 423 -412 501 -499
92 -103 158 -220 187 -335 22 -88 51 -55 -467 -538 -91 -85 -191 -174 -222
-196 -45 -33 -56 -47 -56 -70 0 -30 27 -61 54 -61 9 0 19 -7 22 -15 4 -8 121
-92 263 -187 255 -171 778 -560 1026 -763 288 -236 492 -376 566 -390 75 -14
91 11 199 315 140 392 224 655 266 835 24 105 51 214 59 243 9 28 27 106 40
173 29 142 181 678 232 817 33 93 45 174 29 200 -4 7 -34 30 -67 53 -79 54
-176 135 -321 271 -107 100 -133 132 -230 278 -60 91 -138 224 -173 295 -54
112 -120 294 -140 388 -3 15 -11 27 -18 26 -6 0 -55 -21 -107 -46z"/>
<path d="M11337 8993 c-9 -11 -17 -29 -17 -40 0 -11 -17 -40 -38 -64 -69 -79
-199 -256 -222 -304 -34 -71 -25 -112 65 -294 43 -87 101 -225 131 -311 29
-85 73 -215 98 -289 26 -74 60 -189 77 -255 43 -175 64 -233 139 -401 37 -82
95 -229 130 -325 141 -396 212 -497 312 -445 18 10 72 37 119 61 48 24 122 72
165 107 92 74 281 216 409 307 120 86 460 360 560 450 186 170 370 348 401
389 35 46 44 94 24 131 -5 10 -45 43 -87 73 -43 30 -114 88 -158 128 -197 183
-302 252 -601 402 l-231 116 -109 114 c-233 245 -390 345 -681 433 -79 24
-108 28 -278 32 -178 4 -191 3 -208 -15z"/>
<path d="M7917 8302 c-23 -25 -92 -328 -122 -537 -14 -99 -37 -241 -50 -315
-25 -137 -101 -641 -130 -850 -8 -63 -31 -219 -50 -347 -37 -245 -42 -328 -22
-354 17 -22 51 -39 80 -39 30 0 37 -9 66 -80 31 -77 62 -206 121 -500 59 -299
63 -313 95 -334 36 -23 60 -20 99 14 57 51 94 115 111 199 41 189 70 302 98
380 26 73 34 85 63 97 18 8 44 14 57 14 35 0 72 33 91 80 33 82 39 173 27 390
-30 528 -39 605 -102 868 -16 70 -37 173 -45 230 -10 71 -23 120 -43 160 -34
69 -61 150 -100 302 -31 122 -81 406 -81 462 0 18 -11 56 -24 84 -38 82 -102
117 -139 76z"/>
<path d="M10970 8281 c-22 -22 -41 -45 -42 -53 0 -7 -2 -24 -4 -38 -1 -14 -16
-106 -33 -205 -48 -279 -106 -496 -162 -607 -20 -40 -33 -88 -43 -160 -8 -57
-29 -160 -45 -230 -63 -263 -72 -340 -102 -868 -12 -217 -6 -308 27 -390 19
-47 56 -80 91 -80 13 0 39 -6 57 -14 29 -12 37 -24 63 -97 28 -78 57 -191 98
-380 17 -84 54 -148 111 -199 39 -34 63 -37 99 -14 32 21 36 35 95 334 59 294
90 423 121 500 29 71 36 80 66 80 29 0 63 17 80 39 20 26 15 109 -22 354 -19
128 -42 284 -50 347 -26 188 -104 709 -121 798 -8 45 -14 93 -12 105 1 12 -3
36 -10 52 -6 17 -23 111 -37 210 -30 208 -99 512 -122 537 -26 29 -60 22 -103
-21z"/>
<path d="M9295 7775 c-27 -8 -59 -15 -70 -15 -21 0 -359 -142 -470 -198 -121
-60 -188 -109 -248 -177 -61 -71 -62 -77 -57 -190 5 -124 83 -261 252 -445
120 -130 207 -206 298 -262 74 -44 98 -47 128 -15 27 29 28 67 2 136 -28 73
-19 75 13 4 66 -147 146 -444 154 -571 8 -122 24 -146 94 -140 148 15 388 252
521 516 l47 93 12 -43 c7 -28 9 -77 5 -140 -6 -89 -5 -99 14 -118 32 -32 64
-25 103 20 76 90 124 215 157 415 11 72 28 153 37 180 22 70 82 177 188 335
90 135 154 254 142 266 -3 3 -50 16 -104 29 -153 36 -327 99 -508 185 -238
112 -292 133 -355 136 -238 13 -307 13 -355 -1z"/>
</g>
</svg>
